<svg id="shortLogo" xmlns="http://www.w3.org/2000/svg" viewBox="0 0 700 700"><defs><style>.cls-1{fill:#2f92c1;}</style></defs><title>Plan de travail 1</title><g id="bg"><rect x="-1.94" y="-0.14" width="702" height="701"/></g><g id="blueSquare_-_copie_2" data-name="blueSquare - copie 2"><path class="cls-1" d="M490.68,391.42q-27.56-36.85-78.6-51.45,42.93-15.39,66.44-49.43t23.5-78.6q0-68.87-53.48-109.39T304.31,62H143.46V179.8H25v-.08H23.94V639H311.6q63.21,0,109.8-19.45t71.71-55.1q25.11-35.64,25.12-83.46Q518.23,428.3,490.68,391.42ZM172.23,177.1H278.38q41.33,0,61.18,13.77t19.85,42.95q0,28.37-19.45,41.32t-61.58,13H172.23Zm184.34,333q-19.05,13.79-62.79,13.77H172.23V403.17H293.78q44.55,0,63.2,13.77t18.63,47Q375.61,496.36,356.57,510.13Z"/><rect class="cls-1" x="538.34" y="503.25" width="118.43" height="118.43" transform="translate(241.26 -176.79) rotate(21)"/></g></svg>